<svg width="191" height="231" viewBox="0 0 191 231" fill="none" xmlns="http://www.w3.org/2000/svg">
<g filter="url(#filter0_d)">
<path d="M19.4791 208.186V215.215L15.4295 218.985H6.67872L2.44295 215.494V195.153L6.67872 191.01H15.4295L19.4791 195.06V201.716H12.9626V197.527H9.00607V212.422H12.9626V208.186H19.4791ZM39.2525 195.06V215.215L35.2029 218.985H26.4521L22.2163 215.494V195.153L26.4521 191.01H35.2029L39.2525 195.06ZM32.7359 197.573H28.7794V212.468H32.7359V197.573ZM61.3033 195.013V215.168L57.2538 218.985H42.2657V212.468H44.2672V197.48H42.2657V190.964H57.2538L61.3033 195.013ZM54.7402 197.48H50.7837V212.375H54.7402V197.48ZM82.7153 191.01V199.575H76.1987V197.527H72.2422V201.716H79.3174V208.279C78.4175 208.279 77.7037 208.279 77.1762 208.279C76.6797 208.279 76.1987 208.279 75.7332 208.279C75.2988 208.248 74.8178 208.233 74.2903 208.233C73.7938 208.233 73.1111 208.233 72.2422 208.233V212.422H76.1987V210.42H82.7153V218.985H63.5845V212.422H65.7257V197.527H63.5845V191.01H82.7153ZM89.3609 191.01H98.0652L102.115 195.06V199.621H95.5982V197.573H91.6417V201.763H97.7394L102.115 206.231V215.168L98.0652 218.985H89.3609L85.1252 215.494V210.42H91.6417V212.468H95.5982V208.279L90.5246 208.233L85.1252 203.811V195.106L89.3609 191.01ZM115.746 218.985H105.04V212.468H107.135V197.527H105.04V191.01H124.171V199.575H117.655V197.527H113.698V201.716H120.773V208.279C119.873 208.279 119.16 208.279 118.632 208.279C118.136 208.279 117.655 208.279 117.189 208.279C116.755 208.248 116.274 208.233 115.746 208.233C115.25 208.233 114.567 208.233 113.698 208.233V212.468H115.746V218.985ZM143.301 195.06V215.215L139.252 218.985H130.501L126.265 215.494V195.153L130.501 191.01H139.252L143.301 195.06ZM136.785 197.573H132.828V212.468H136.785V197.573ZM154.972 197.573V201.763H158.882V197.573H154.972ZM154.972 208.279V218.985H146.314V212.468H148.409V197.573H146.314V191.01H160.418L165.445 194.874V201.809L161.535 205.114L165.445 208.279V212.468L167.633 212.515V218.985H158.882V208.279H154.972ZM188.807 195.013V215.168L184.758 218.985H169.77V212.468H171.771V197.48H169.77V190.964H184.758L188.807 195.013ZM182.244 197.48H178.288V212.375H182.244V197.48Z" fill="url(#paint0_linear)"/>
</g>
<g filter="url(#filter1_d)">
<ellipse cx="94.5491" cy="87.0069" rx="83.7844" ry="87.0069" fill="#5870F2"/>
</g>
<path d="M123.826 60.537L123.826 60.5368C113.608 45.3702 108.33 30.2667 72.9675 71.4139C68.6383 76.4514 61.1218 72.6523 57.0066 69.9864C59.6869 73.0186 65.8093 80.1868 70.4413 83.0685C75.0734 85.9502 79.0288 82.4271 81.4043 80.1269C111.109 51.3644 111.554 47.8635 123.826 60.537Z" fill="white"/>
<path d="M45.5509 136.33L45.5507 136.33C30.7211 125.629 15.7954 119.867 58.0603 85.8485C63.2346 81.6838 59.6797 74.0488 57.1477 69.8499C60.0919 72.6264 67.0593 78.9766 69.7903 83.699C72.5213 88.4215 68.8726 92.2614 66.4971 94.5616C36.7927 123.324 33.2793 123.657 45.5509 136.33Z" fill="white"/>
<path d="M143.364 37.6796L143.364 37.6793C158.194 48.3808 173.12 54.1429 130.855 88.1612C125.68 92.326 129.235 99.961 131.767 104.16C128.823 101.383 121.856 95.0332 119.125 90.3107C116.394 85.5883 120.042 81.7484 122.418 79.4482C152.122 50.6857 155.636 50.3531 143.364 37.6796Z" fill="white"/>
<path d="M65.0901 113.474L65.0898 113.474C75.308 128.641 80.5864 143.745 115.948 102.597C120.278 97.5598 127.794 101.359 131.909 104.025C129.229 100.993 123.107 93.8243 118.475 90.9427C113.843 88.061 109.887 91.5841 107.512 93.8842C77.8073 122.647 77.3618 126.148 65.0901 113.474Z" fill="white"/>
<defs>
<filter id="filter0_d" x="0.934174" y="190.964" width="189.382" height="31.0388" filterUnits="userSpaceOnUse" color-interpolation-filters="sRGB">
<feFlood flood-opacity="0" result="BackgroundImageFix"/>
<feColorMatrix in="SourceAlpha" type="matrix" values="0 0 0 0 0 0 0 0 0 0 0 0 0 0 0 0 0 0 127 0"/>
<feOffset dy="1.50879"/>
<feGaussianBlur stdDeviation="0.754394"/>
<feColorMatrix type="matrix" values="0 0 0 0 0 0 0 0 0 0 0 0 0 0 0 0 0 0 0.25 0"/>
<feBlend mode="normal" in2="BackgroundImageFix" result="effect1_dropShadow"/>
<feBlend mode="normal" in="SourceGraphic" in2="effect1_dropShadow" result="shape"/>
</filter>
<filter id="filter1_d" x="9.25586" y="0" width="170.586" height="177.031" filterUnits="userSpaceOnUse" color-interpolation-filters="sRGB">
<feFlood flood-opacity="0" result="BackgroundImageFix"/>
<feColorMatrix in="SourceAlpha" type="matrix" values="0 0 0 0 0 0 0 0 0 0 0 0 0 0 0 0 0 0 127 0"/>
<feOffset dy="1.50879"/>
<feGaussianBlur stdDeviation="0.754394"/>
<feColorMatrix type="matrix" values="0 0 0 0 0 0 0 0 0 0 0 0 0 0 0 0 0 0 0.25 0"/>
<feBlend mode="normal" in2="BackgroundImageFix" result="effect1_dropShadow"/>
<feBlend mode="normal" in="SourceGraphic" in2="effect1_dropShadow" result="shape"/>
</filter>
<linearGradient id="paint0_linear" x1="95.8393" y1="183.985" x2="95.8393" y2="230.532" gradientUnits="userSpaceOnUse">
<stop stop-color="#5870F2"/>
<stop offset="0.9999" stop-color="#001CB4"/>
<stop offset="1" stop-color="#5870F2" stop-opacity="0"/>
</linearGradient>
</defs>
</svg>
